<?xml version="1.0" encoding="utf-8"?>
<!-- Generator: Adobe Illustrator 28.2.0, SVG Export Plug-In . SVG Version: 6.00 Build 0)  -->
<svg version="1.1" id="Capa_2_00000016069075566012721860000011920941862353809807_"
	 xmlns="http://www.w3.org/2000/svg" xmlns:xlink="http://www.w3.org/1999/xlink" x="0px" y="0px" viewBox="0 0 660.3 109.7"
	 style="enable-background:new 0 0 660.3 109.7;" xml:space="preserve">
<style type="text/css">
	.st0{fill:#FFFFFF;}
</style>
<g id="Capa_1-2">
	<g>
		<polygon class="st0" points="286.6,109.7 175.8,0.5 178.4,0.5 289.3,109.7 		"/>
		<path class="st0" d="M208.2,7.2c-0.3,2.3-1.3,3.5-3.2,3.5c-2.5,0-3.4-2-3.4-5.4c0-3,0.9-5.3,3.4-5.3c2,0,2.9,1.2,3.1,3.4l-1.6,0.2
			c-0.2-1.3-0.7-2-1.5-2c-1.1,0-1.6,1.1-1.6,3.8c0,2.9,0.5,3.9,1.6,3.9c0.8,0,1.4-0.7,1.6-2.2L208.2,7.2L208.2,7.2z"/>
		<polygon class="st0" points="210.1,10.6 210.1,0.1 215.5,0.1 215.5,1.7 211.8,1.7 211.8,4.4 214.6,4.4 214.6,5.9 211.8,5.9 
			211.8,9 215.7,9 215.7,10.6 		"/>
		<polygon class="st0" points="222.5,10.6 219.1,3.4 219.1,3.4 219.1,10.6 217.6,10.6 217.6,0.1 219.6,0.1 222.5,6.5 222.5,6.5 
			222.5,0.1 224.1,0.1 224.1,10.6 		"/>
		<polygon class="st0" points="228.1,10.6 228.1,1.7 225.9,1.7 225.9,0.1 232,0.1 232,1.7 229.8,1.7 229.8,10.6 		"/>
		<path class="st0" d="M238.4,10.6l-1.5-4.3h-1.3v4.3h-1.8V0.1h2.8c2.3,0,3.4,0.9,3.4,2.9c0,1.3-0.6,2.1-1.5,2.5l1.9,5H238.4
			L238.4,10.6z M236.6,4.8c0.8,0,1.6-0.3,1.6-1.6c0-1.5-0.8-1.6-1.6-1.6h-1v3.2L236.6,4.8L236.6,4.8z"/>
		<path class="st0" d="M241.7,5.4c0-3.5,1-5.4,3.5-5.4s3.5,1.9,3.5,5.4s-1.1,5.4-3.5,5.4S241.7,8.8,241.7,5.4 M247,5.4
			c0-2.7-0.6-3.9-1.7-3.9s-1.7,1.1-1.7,3.9s0.6,3.9,1.7,3.9S247,8.2,247,5.4"/>
		<path class="st0" d="M220.6,25.1l-1.5-4.3h-1.3v4.3H216V14.6h2.8c2.3,0,3.4,0.9,3.4,2.9c0,1.3-0.6,2.1-1.5,2.5l1.9,5H220.6
			L220.6,25.1z M218.7,19.3c0.8,0,1.6-0.3,1.6-1.6c0-1.5-0.8-1.6-1.6-1.6h-1v3.2H218.7L218.7,19.3z"/>
		<path class="st0" d="M223.9,19.9c0-3.5,1-5.4,3.5-5.4s3.5,1.9,3.5,5.4s-1.1,5.4-3.5,5.4S223.9,23.3,223.9,19.9 M229.1,19.9
			c0-2.7-0.6-3.9-1.7-3.9s-1.7,1.1-1.7,3.9s0.6,3.9,1.7,3.9S229.1,22.7,229.1,19.9"/>
		<path class="st0" d="M233,25.1V14.6h2.6c2.4,0,3.5,0.8,3.5,2.7c0,1.1-0.5,1.8-1.4,2.2v0c1.2,0.4,1.6,1.3,1.6,2.5
			c0,2.4-1.6,3-3.6,3L233,25.1L233,25.1z M235.7,19c0.9,0,1.7-0.3,1.7-1.5s-0.8-1.3-1.7-1.3h-1V19H235.7z M235.9,23.5
			c1.2,0,1.8-0.4,1.8-1.6s-0.6-1.6-1.7-1.6h-1.2v3.2H235.9L235.9,23.5z"/>
		<polygon class="st0" points="241.5,25.1 241.5,14.6 246.9,14.6 246.9,16.2 243.2,16.2 243.2,18.9 246,18.9 246,20.4 243.2,20.4 
			243.2,23.5 247.1,23.5 247.1,25.1 		"/>
		<path class="st0" d="M253.6,25.1l-1.5-4.3h-1.4v4.3h-1.8V14.6h2.8c2.3,0,3.4,0.9,3.4,2.9c0,1.3-0.6,2.1-1.5,2.5l1.8,5H253.6
			L253.6,25.1z M251.7,19.3c0.8,0,1.6-0.3,1.6-1.6c0-1.5-0.8-1.6-1.6-1.6h-1v3.2H251.7L251.7,19.3z"/>
		<polygon class="st0" points="258.9,25.1 258.9,16.2 256.7,16.2 256.7,14.6 262.8,14.6 262.8,16.2 260.6,16.2 260.6,25.1 		"/>
		<path class="st0" d="M264.1,19.9c0-3.5,1-5.4,3.5-5.4s3.5,1.9,3.5,5.4s-1.1,5.4-3.5,5.4S264.1,23.3,264.1,19.9 M269.4,19.9
			c0-2.7-0.6-3.9-1.7-3.9s-1.7,1.1-1.7,3.9s0.6,3.9,1.7,3.9S269.4,22.7,269.4,19.9"/>
		<path class="st0" d="M234.8,39.6v-0.8h0c-0.6,0.7-1.3,1-2.1,1c-2,0-3.1-1.5-3.1-5.4c0-3.1,0.9-5.4,3.5-5.4c2.1,0,2.9,1.4,3.1,3.4
			l-1.6,0.2c-0.2-1.2-0.7-1.9-1.5-1.9c-1.1,0-1.7,1.1-1.7,3.8s0.4,3.9,1.7,3.9c1,0,1.5-0.8,1.5-1.9c0-0.2,0-0.3,0-0.5H233v-1.4h3.2
			v5.2L234.8,39.6L234.8,39.6z"/>
		<path class="st0" d="M243.3,39.6l-0.6-2.7h-2.6l-0.5,2.7h-1.8l2.4-10.5h2.4l2.5,10.5H243.3L243.3,39.6z M240.5,35.4h1.9l-0.9-4.6
			h0L240.5,35.4L240.5,35.4z"/>
		<path class="st0" d="M251.5,39.6l-1.5-4.3h-1.3v4.3h-1.8V29.1h2.8c2.3,0,3.4,0.9,3.4,2.9c0,1.3-0.6,2.1-1.5,2.5l1.9,5H251.5
			L251.5,39.6z M249.7,33.8c0.8,0,1.6-0.3,1.6-1.6c0-1.5-0.8-1.6-1.6-1.6h-1v3.2H249.7L249.7,33.8z"/>
		<polygon class="st0" points="255,39.6 255,38 259,30.7 255.3,30.7 255.3,29.1 261.1,29.1 261.1,30.7 257,38 261.1,38 261.1,39.6 
					"/>
		<path class="st0" d="M268.1,39.6l-0.6-2.7H265l-0.5,2.7h-1.8l2.4-10.5h2.4l2.5,10.5H268.1L268.1,39.6z M265.3,35.4h1.9l-1-4.6h0
			L265.3,35.4L265.3,35.4z"/>
		<path class="st0" d="M279.1,31.9c-0.2-0.9-0.6-1.4-1.4-1.4c-0.7,0-1.2,0.4-1.2,1.1c0,2.2,4.3,1.9,4.3,5.4c0,1.8-1.2,2.8-3.1,2.8
			s-2.8-0.9-3.1-2.8l1.6-0.3c0.2,1.1,0.6,1.6,1.5,1.6c0.8,0,1.3-0.4,1.3-1.2c0-2.3-4.3-2-4.3-5.4c0-1.6,1.1-2.6,2.8-2.6s2.7,1,3,2.6
			L279.1,31.9L279.1,31.9z"/>
		<path class="st0" d="M287.6,39.6l-0.6-2.7h-2.5l-0.5,2.7h-1.8l2.4-10.5h2.4l2.5,10.5H287.6L287.6,39.6z M284.8,35.4h1.9l-0.9-4.6
			h0L284.8,35.4L284.8,35.4z"/>
		<path class="st0" d="M291.1,39.6V29.1h2.4c2.9,0,4.3,1.5,4.3,5.1c0,3.4-1.2,5.3-4.3,5.3C293.6,39.6,291.1,39.6,291.1,39.6z
			 M293.7,38c1.7,0,2.4-1.2,2.4-3.7s-0.8-3.5-2.3-3.5h-0.8V38H293.7L293.7,38z"/>
		<path class="st0" d="M304.4,39.6l-0.6-2.7h-2.5l-0.5,2.7H299l2.4-10.5h2.4l2.5,10.5H304.4L304.4,39.6z M301.6,35.4h1.9l-1-4.6h0
			L301.6,35.4z"/>
		<path class="st0" d="M244.1,54.1V43.6h2c3,0,4.3,1.5,4.3,5.1s-1.3,5.3-4.3,5.3L244.1,54.1L244.1,54.1z M246.2,52.9
			c2,0,2.9-1.2,2.9-4.1s-0.9-3.9-2.8-3.9h-0.9v8L246.2,52.9L246.2,52.9z"/>
		<polygon class="st0" points="252.6,54.1 252.6,43.6 257.6,43.6 257.6,44.8 253.8,44.8 253.8,48.1 256.6,48.1 256.6,49.2 
			253.8,49.2 253.8,52.9 257.8,52.9 257.8,54.1 		"/>
		<path class="st0" d="M268.2,54.1l-0.7-3h-2.9l-0.7,3h-1.3l2.5-10.5h1.8l2.5,10.5H268.2L268.2,54.1z M264.9,49.9h2.4l-1.2-5.2h0
			L264.9,49.9L264.9,49.9z"/>
		<path class="st0" d="M276.1,54.1l-1.8-4.6h-1.6v4.6h-1.3V43.6h2.5c2.3,0,3.3,0.9,3.3,2.8c0,1.4-0.6,2.2-1.7,2.6l2,5H276.1
			L276.1,54.1z M274,48.3c0.9,0,1.9-0.3,1.9-1.8s-0.9-1.8-2-1.8h-1.2v3.6H274z"/>
		<polygon class="st0" points="281.2,54.1 281.2,44.8 278.9,44.8 278.9,43.6 284.8,43.6 284.8,44.8 282.5,44.8 282.5,54.1 		"/>
		<polygon class="st0" points="286.7,54.1 286.7,43.6 291.7,43.6 291.7,44.8 288,44.8 288,48.1 290.8,48.1 290.8,49.2 288,49.2 
			288,52.9 292,52.9 292,54.1 		"/>
		<path class="st0" d="M262.9,68.6l-0.7-3h-2.9l-0.7,3h-1.3l2.5-10.5h1.8l2.5,10.5H262.9L262.9,68.6z M259.6,64.4h2.4l-1.2-5.2h0
			L259.6,64.4L259.6,64.4z"/>
		<path class="st0" d="M270.8,68.6L269,64h-1.6v4.6h-1.3V58.1h2.5c2.3,0,3.3,0.9,3.3,2.8c0,1.4-0.6,2.2-1.7,2.6l2,5H270.8
			L270.8,68.6z M268.7,62.8c0.9,0,1.9-0.3,1.9-1.8s-0.9-1.8-2-1.8h-1.2v3.6H268.7z"/>
		<path class="st0" d="M273.8,63.3c0-3.5,1.1-5.3,3.3-5.3s3.3,1.8,3.3,5.3c0,1.8-0.3,3.2-0.9,4.1c0.3,0.5,0.6,0.8,1.2,0.8v1.3
			c-1,0-1.5-0.5-2-1.3c-0.5,0.3-1,0.4-1.6,0.4C274.9,68.7,273.8,66.8,273.8,63.3 M278.2,67.1c-0.3-0.5-0.5-0.9-1-1v-1.2
			c0.8,0.1,1.2,0.6,1.6,1.2c0.2-0.7,0.3-1.6,0.3-2.8c0-2.9-0.7-4.2-2-4.2s-2,1.3-2,4.2c0,2.9,0.8,4.2,2,4.2
			C277.5,67.6,277.9,67.4,278.2,67.1"/>
		<path class="st0" d="M287.4,58.1h1.3v7.3c0,2.2-0.9,3.3-3.1,3.3s-3-1.2-3-3.3v-7.3h1.3v7.4c0,1.4,0.5,2,1.7,2s1.8-0.6,1.8-2
			L287.4,58.1L287.4,58.1z"/>
		<rect x="291.3" y="58.1" class="st0" width="1.3" height="10.5"/>
		<polygon class="st0" points="296.8,68.6 296.8,59.3 294.5,59.3 294.5,58.1 300.4,58.1 300.4,59.3 298,59.3 298,68.6 		"/>
		<polygon class="st0" points="302.3,68.6 302.3,58.1 307.3,58.1 307.3,59.3 303.5,59.3 303.5,62.6 306.3,62.6 306.3,63.7 
			303.5,63.7 303.5,67.4 307.5,67.4 307.5,68.6 		"/>
		<path class="st0" d="M315.2,65.2c-0.3,2.4-1.3,3.5-3.1,3.5c-2.3,0-3.2-1.9-3.2-5.4c0-3.2,1-5.3,3.2-5.3c1.8,0,2.6,1.1,2.9,3.3
			l-1.2,0.1c-0.3-1.5-0.8-2.2-1.8-2.2c-1.3,0-2,1.3-2,4.1c0,3,0.6,4.2,1.9,4.2c1,0,1.6-0.8,1.9-2.5C314,65.1,315.2,65.2,315.2,65.2z
			"/>
		<polygon class="st0" points="318.9,68.6 318.9,59.3 316.6,59.3 316.6,58.1 322.5,58.1 322.5,59.3 320.1,59.3 320.1,68.6 		"/>
		<path class="st0" d="M329.1,58.1h1.3v7.3c0,2.2-0.9,3.3-3.1,3.3s-3-1.2-3-3.3v-7.3h1.3v7.4c0,1.4,0.5,2,1.7,2s1.8-0.6,1.8-2
			L329.1,58.1L329.1,58.1z"/>
		<path class="st0" d="M337.7,68.6l-1.8-4.6h-1.6v4.6H333V58.1h2.5c2.3,0,3.3,0.9,3.3,2.8c0,1.4-0.6,2.2-1.7,2.6l2,5H337.7
			L337.7,68.6z M335.6,62.8c0.9,0,1.9-0.3,1.9-1.8s-0.9-1.8-2-1.8h-1.2v3.6H335.6z"/>
		<path class="st0" d="M346.2,68.6l-0.7-3h-2.9l-0.7,3h-1.3l2.5-10.5h1.8l2.5,10.5H346.2z M342.9,64.4h2.4l-1.2-5.2h0L342.9,64.4
			L342.9,64.4z"/>
		<polygon class="st0" points="273.8,83.1 273.8,78.7 271.2,72.6 272.6,72.6 274.4,77.2 274.5,77.2 276.4,72.6 277.8,72.6 
			275.1,78.7 275.1,83.1 		"/>
		<path class="st0" d="M283.1,83.1V72.6h2c3,0,4.3,1.5,4.3,5.1s-1.3,5.3-4.3,5.3H283.1z M285.2,81.8c2,0,2.9-1.2,2.9-4.1
			s-0.9-3.9-2.8-3.9h-0.9v8.1L285.2,81.8L285.2,81.8z"/>
		<rect x="291.6" y="72.6" class="st0" width="1.3" height="10.5"/>
		<path class="st0" d="M299.3,75.3c-0.2-1.1-0.7-1.7-1.6-1.7c-0.9,0-1.4,0.5-1.4,1.3c0,2.4,4.4,2.1,4.4,5.5c0,1.8-1.1,2.8-2.9,2.8
			s-2.6-0.9-2.9-2.8l1.2-0.2c0.2,1.3,0.7,1.8,1.8,1.8c1,0,1.6-0.5,1.6-1.5c0-2.6-4.3-2.2-4.3-5.5c0-1.6,1-2.6,2.6-2.6
			c1.7,0,2.5,1,2.8,2.6L299.3,75.3L299.3,75.3z"/>
		<polygon class="st0" points="302.7,83.1 302.7,72.6 307.8,72.6 307.8,73.8 304,73.8 304,77.1 306.8,77.1 306.8,78.2 304,78.2 
			304,81.9 308,81.9 308,83.1 		"/>
		<path class="st0" d="M314.9,83.1l-3.7-8.3h0v8.3h-1.2V72.6h1.7l3.2,7.2h0v-7.2h1.2v10.5H314.9L314.9,83.1z M315.3,70.2
			c-0.1,0.9-0.5,1.5-1.3,1.5s-1.2-0.6-1.8-0.6c-0.3,0-0.4,0.2-0.5,0.6H311c0.1-0.9,0.5-1.5,1.3-1.5s1.2,0.6,1.9,0.6
			c0.3,0,0.4-0.3,0.5-0.6L315.3,70.2L315.3,70.2z"/>
		<path class="st0" d="M318.3,77.8c0-3.5,1.1-5.3,3.3-5.3s3.3,1.8,3.3,5.3s-1.1,5.4-3.3,5.4S318.3,81.3,318.3,77.8 M323.7,77.8
			c0-2.9-0.7-4.2-2-4.2s-2,1.3-2,4.2s0.8,4.2,2,4.2S323.7,80.7,323.7,77.8"/>
		<g>
			<path class="st0" d="M2.2,58.9c-0.9,0-1.4-0.5-1.4-1.3v-8.5c0-0.8,0.5-1.3,1.4-1.3h6.4v1.8H3.2v2.7h4.7v1.8H3.2v3h5.4v1.8
				L2.2,58.9L2.2,58.9z"/>
			<path class="st0" d="M16.4,52.6c1.9,0.4,2.9,1.3,2.9,3c0,2.3-1.8,3.4-3.9,3.4c-1.3,0-2.3-0.2-3.6-0.6l-0.9-0.3l0.4-2l0.9,0.3
				c1,0.4,2.1,0.7,3.2,0.7c0.9,0,1.6-0.4,1.6-1.3c0-0.7-0.4-1.1-1.3-1.3l-1.9-0.4c-1.9-0.4-2.9-1.3-2.9-3.1c0-2.3,1.7-3.3,3.9-3.3
				c1.3,0,2.3,0.2,3.6,0.6l0.9,0.3l-0.4,2l-0.9-0.3c-1-0.4-2.1-0.7-3.1-0.7c-0.9,0-1.6,0.4-1.6,1.3c0,0.7,0.4,1,1.2,1.2L16.4,52.6
				L16.4,52.6z"/>
			<path class="st0" d="M26.7,47.7c1,0,2,0.2,3.1,0.5l0.9,0.3l-0.3,2l-0.9-0.3c-0.9-0.3-1.7-0.5-2.5-0.5c-1.9,0-2.9,1.2-2.9,3.6
				s1.1,3.6,3,3.6c0.8,0,1.6-0.1,2.4-0.4l0.9-0.3l0.3,2l-0.9,0.3c-1.1,0.3-2.1,0.5-3.1,0.5c-3,0-5.2-1.8-5.2-5.7
				S23.7,47.7,26.7,47.7"/>
			<path class="st0" d="M39.6,47.8H42v7.1c0,2.7-1.6,4.3-4.6,4.3s-4.6-1.6-4.6-4.3v-7.1h2.5v7.1c0,1.4,0.7,2.2,2.2,2.2
				s2.2-0.8,2.2-2.2C39.6,54.9,39.6,47.7,39.6,47.8z"/>
			<path class="st0" d="M46.1,58.9c-0.9,0-1.4-0.5-1.4-1.3v-8.5c0-0.8,0.5-1.3,1.4-1.3h6.4v1.8h-5.4v2.7h4.7v1.8h-4.7v3h5.4v1.8
				L46.1,58.9L46.1,58.9z"/>
			<path class="st0" d="M56.4,58.9c-0.9,0-1.4-0.5-1.4-1.3v-9.8h2.5v9.1h5v2H56.4z"/>
			<path class="st0" d="M72,58.9l-0.7-2h-4.1l-0.7,2h-2.4l3.6-10.1c0.2-0.8,0.8-1.1,1.7-1.1s1.5,0.4,1.7,1.1l3.4,10.1H72L72,58.9z
				 M69.3,50.1l-1.6,5h3.2L69.3,50.1z"/>
			<path class="st0" d="M85.5,58.9h-2.8c-0.9,0-1.4-0.5-1.4-1.3v-8.5c0-0.8,0.5-1.3,1.4-1.3h2.9c3.2,0,5.2,2.1,5.2,5.6
				S88.6,58.9,85.5,58.9 M85.3,49.6h-1.7V57h1.8c1.8,0,2.9-1.3,2.9-3.7S87.2,49.6,85.3,49.6"/>
			<path class="st0" d="M94.6,58.9c-0.9,0-1.4-0.5-1.4-1.3v-8.5c0-0.8,0.5-1.3,1.4-1.3h6.4v1.8h-5.4v2.7h4.7v1.8h-4.7v3h5.4v1.8
				L94.6,58.9L94.6,58.9z"/>
			<path class="st0" d="M8,74.8l-0.7-2H3.1l-0.7,2H0l3.6-10.1c0.2-0.8,0.8-1.1,1.7-1.1S6.8,64,7,64.7l3.4,10.1H8L8,74.8z M5.2,66
				L3.6,71h3.2C6.8,71,5.2,66,5.2,66z"/>
			<path class="st0" d="M19,74.8l-1.7-4.1h-2.4v4.1h-2.4V65c0-0.8,0.5-1.3,1.4-1.3h3.8c2.1,0,3.5,1.1,3.5,3.2c0,0.9-0.4,1.7-0.9,2.3
				L19.5,70l2.1,4.8C21.6,74.8,19,74.8,19,74.8z M17.2,65.5h-2.4V69h2.9l0.5-0.6c0.3-0.4,0.6-0.8,0.6-1.4
				C18.7,66.1,18.3,65.5,17.2,65.5"/>
			<polygon class="st0" points="28.6,65.6 28.6,74.8 26.1,74.8 26.1,65.6 22.9,65.6 22.9,63.7 31.8,63.7 31.8,65.6 			"/>
			<path class="st0" d="M35.5,74.8c-0.9,0-1.4-0.5-1.4-1.3V65c0-0.8,0.5-1.3,1.4-1.3h6.4v1.8h-5.4v2.7h4.7V70h-4.7v3h5.4v1.8
				L35.5,74.8L35.5,74.8z"/>
			<polygon class="st0" points="54.8,70.2 54.8,74.8 52.3,74.8 52.3,70.2 48.3,63.7 51,63.7 53.6,68.1 56.1,63.7 58.8,63.7 			"/>
			<path class="st0" d="M69.7,74.8h-2.8c-0.9,0-1.4-0.5-1.4-1.3V65c0-0.8,0.5-1.3,1.4-1.3h2.9c3.2,0,5.2,2.1,5.2,5.6
				S72.9,74.8,69.7,74.8 M69.6,65.6h-1.7v7.4h1.8c1.8,0,2.9-1.3,2.9-3.7S71.5,65.6,69.6,65.6"/>
			<rect x="77.4" y="63.7" class="st0" width="2.5" height="11.1"/>
			<path class="st0" d="M87.9,68.5c1.9,0.4,2.9,1.3,2.9,3.1c0,2.3-1.8,3.4-3.9,3.4c-1.3,0-2.3-0.2-3.6-0.6l-0.9-0.3l0.4-2l0.9,0.3
				c1,0.4,2.2,0.7,3.2,0.7c0.8,0,1.6-0.4,1.6-1.3c0-0.7-0.4-1.1-1.3-1.3L85.3,70c-1.9-0.4-2.9-1.3-2.9-3.1c0-2.3,1.7-3.3,3.9-3.3
				c1.3,0,2.3,0.2,3.6,0.6l0.9,0.3l-0.4,2.1l-0.9-0.3c-1.1-0.4-2.1-0.7-3.1-0.7c-0.9,0-1.6,0.4-1.6,1.3c0,0.7,0.4,1.1,1.3,1.2
				L87.9,68.5L87.9,68.5z"/>
			<path class="st0" d="M94.7,74.8c-0.9,0-1.4-0.5-1.4-1.3V65c0-0.8,0.5-1.3,1.4-1.3h6.4v1.8h-5.4v2.7h4.7V70h-4.7v3h5.4v1.8
				L94.7,74.8L94.7,74.8z"/>
			<path class="st0" d="M105.7,74.8h-2.1v-9.7c0-1,0.6-1.5,1.7-1.5c0.9,0,1.4,0.4,1.7,1l3.9,6.9v-7.8h2.1v9.7c0,1-0.6,1.5-1.7,1.5
				c-0.9,0-1.4-0.4-1.7-1l-3.9-6.9L105.7,74.8L105.7,74.8z M108.4,62.7l-0.5-0.4c-0.2-0.1-0.4-0.2-0.6-0.2c-0.3,0-0.7,0.2-1,0.9
				l-1.1-0.7c0.5-1.3,1.3-1.8,2.2-1.8c0.4,0,0.8,0.1,1.2,0.4l0.6,0.4c0.2,0.1,0.4,0.2,0.6,0.2c0.4,0,0.7-0.2,1-0.9l1.1,0.7
				c-0.5,1.3-1.3,1.8-2.1,1.8C109.1,63.1,108.8,62.9,108.4,62.7"/>
			<path class="st0" d="M120.8,74.9c-3.2,0-5.4-2.1-5.4-5.7s2.2-5.7,5.4-5.7s5.4,2.1,5.4,5.7S124.1,74.9,120.8,74.9 M120.8,65.4
				c-1.8,0-2.9,1.4-2.9,3.9s1.1,3.9,3,3.9s2.9-1.4,2.9-3.9S122.7,65.4,120.8,65.4"/>
			<path class="st0" d="M7.5,79.6h2.5v7.1c0,2.7-1.6,4.3-4.6,4.3s-4.6-1.6-4.6-4.3v-7.1h2.5v7.1c0,1.4,0.7,2.2,2.2,2.2
				s2.2-0.8,2.2-2.2C7.5,86.8,7.5,79.6,7.5,79.6z"/>
			<path class="st0" d="M14.7,90.8h-2.1v-9.7c0-1,0.6-1.5,1.7-1.5c0.9,0,1.4,0.4,1.7,1l3.9,6.9v-7.8H22v9.7c0,1-0.6,1.5-1.7,1.5
				c-0.9,0-1.4-0.4-1.7-1l-3.9-6.9L14.7,90.8L14.7,90.8z"/>
			<rect x="24.7" y="79.6" class="st0" width="2.5" height="11.1"/>
			<path class="st0" d="M35.8,89.8c-0.2,0.7-0.8,1.1-1.7,1.1s-1.4-0.4-1.6-1.1l-3.4-10.2h2.5l2.6,8.5l2.7-8.5h2.5L35.8,89.8
				L35.8,89.8z"/>
			<path class="st0" d="M42.4,90.8c-0.9,0-1.4-0.5-1.4-1.3v-8.5c0-0.8,0.5-1.3,1.4-1.3h6.4v1.8h-5.4v2.7h4.7V86h-4.7v3h5.4v1.8
				L42.4,90.8L42.4,90.8z"/>
			<path class="st0" d="M57.9,90.8l-1.7-4.1h-2.5v4.1h-2.4v-9.8c0-0.8,0.5-1.3,1.4-1.3h3.8c2.2,0,3.5,1.1,3.5,3.2
				c0,0.9-0.4,1.7-0.9,2.3L58.4,86l2.1,4.8C60.5,90.8,57.9,90.8,57.9,90.8z M56.2,81.4h-2.4v3.5h2.9l0.5-0.6
				c0.3-0.4,0.6-0.8,0.6-1.4C57.7,82,57.2,81.4,56.2,81.4"/>
			<path class="st0" d="M67.9,84.5c1.9,0.4,2.9,1.3,2.9,3.1c0,2.3-1.8,3.4-3.9,3.4c-1.3,0-2.3-0.2-3.6-0.6L62.4,90l0.4-2l0.9,0.3
				c1,0.4,2.2,0.7,3.2,0.7c0.8,0,1.6-0.4,1.6-1.3c0-0.7-0.4-1.1-1.3-1.3L65.3,86c-1.9-0.4-2.9-1.3-2.9-3.1c0-2.3,1.7-3.3,3.9-3.3
				c1.3,0,2.3,0.2,3.6,0.6l0.9,0.3l-0.4,2.1l-0.9-0.3c-1.1-0.4-2.1-0.7-3.1-0.7c-0.9,0-1.6,0.4-1.6,1.3c0,0.7,0.4,1.1,1.3,1.2
				L67.9,84.5L67.9,84.5z"/>
			<rect x="73.3" y="79.6" class="st0" width="2.5" height="11.1"/>
			<path class="st0" d="M82.4,90.8h-2.8c-0.9,0-1.4-0.5-1.4-1.3v-8.5c0-0.8,0.5-1.3,1.4-1.3h2.9c3.2,0,5.2,2.1,5.2,5.6
				S85.5,90.8,82.4,90.8 M82.2,81.5h-1.7v7.4h1.8c1.8,0,2.9-1.3,2.9-3.7S84.1,81.5,82.2,81.5"/>
			<path class="st0" d="M96.4,90.8l-0.7-2h-4.1l-0.7,2h-2.4L92,80.7c0.2-0.8,0.8-1.1,1.7-1.1s1.5,0.4,1.7,1.1l3.4,10.1H96.4
				L96.4,90.8z M93.7,82l-1.6,4.9h3.2L93.7,82z"/>
			<path class="st0" d="M105.1,90.8h-2.8c-0.9,0-1.4-0.5-1.4-1.3v-8.5c0-0.8,0.5-1.3,1.4-1.3h2.9c3.2,0,5.2,2.1,5.2,5.6
				S108.3,90.8,105.1,90.8 M105,81.5h-1.7v7.4h1.8c1.8,0,2.9-1.3,2.9-3.7S106.8,81.5,105,81.5"/>
			<path class="st0" d="M5,106.7H2.2c-0.9,0-1.4-0.5-1.4-1.3v-8.5c0-0.8,0.5-1.3,1.4-1.3h2.9c3.2,0,5.2,2.1,5.2,5.6
				S8.2,106.7,5,106.7 M4.9,97.4H3.2v7.4H5c1.8,0,2.9-1.3,2.9-3.7S6.7,97.4,4.9,97.4"/>
			<path class="st0" d="M14.1,106.7c-0.9,0-1.4-0.5-1.4-1.3v-8.5c0-0.8,0.5-1.3,1.4-1.3h6.4v1.8h-5.4v2.7h4.7v1.8h-4.7v3h5.4v1.8
				L14.1,106.7L14.1,106.7z"/>
			<path class="st0" d="M39.5,106.7h-2.2v-8.1l-2.4,7.3c-0.2,0.6-0.6,0.9-1.3,0.9s-1.2-0.3-1.3-0.9l-2.4-7.3v8.1h-2.1V97
				c0-1,0.7-1.5,1.8-1.5c1.2,0,1.8,0.6,2,1.4l2,6.4l2.1-6.4c0.3-0.8,0.7-1.4,2-1.4c1.1,0,1.8,0.5,1.8,1.5
				C39.5,97,39.5,106.7,39.5,106.7z"/>
			<path class="st0" d="M47.3,106.8c-3.2,0-5.3-2.1-5.3-5.7s2.2-5.7,5.4-5.7s5.3,2.1,5.3,5.7S50.5,106.8,47.3,106.8 M47.3,97.3
				c-1.8,0-2.9,1.4-2.9,3.9s1.1,3.9,3,3.9s2.9-1.4,2.9-3.9S49.2,97.3,47.3,97.3"/>
			<path class="st0" d="M57.3,106.7h-2.1V97c0-1,0.6-1.5,1.7-1.5c0.9,0,1.4,0.4,1.7,1l3.9,6.9v-7.8h2.1v9.7c0,1-0.6,1.5-1.7,1.5
				c-0.9,0-1.4-0.4-1.7-1l-3.9-6.9L57.3,106.7L57.3,106.7z"/>
			<polygon class="st0" points="72.6,97.5 72.6,106.7 70.1,106.7 70.1,97.5 66.9,97.5 66.9,95.6 75.8,95.6 75.8,97.5 			"/>
			<path class="st0" d="M79.4,106.7c-0.9,0-1.4-0.5-1.4-1.3v-8.5c0-0.8,0.5-1.3,1.4-1.3h6.4v1.8h-5.4v2.7h4.7v1.8h-4.7v3h5.4v1.8
				L79.4,106.7L79.4,106.7z"/>
			<path class="st0" d="M95,106.7l-1.7-4.1h-2.5v4.1h-2.4v-9.8c0-0.8,0.5-1.3,1.4-1.3h3.8c2.2,0,3.5,1.1,3.5,3.2
				c0,0.9-0.4,1.7-0.9,2.3l-0.7,0.8l2.1,4.8C97.5,106.7,95,106.7,95,106.7z M93.2,97.3h-2.4v3.5h2.9l0.4-0.6
				c0.3-0.4,0.6-0.8,0.6-1.4C94.7,97.9,94.2,97.3,93.2,97.3"/>
			<path class="st0" d="M106.2,106.7l-1.7-4.1H102v4.1h-2.4v-9.8c0-0.8,0.5-1.3,1.4-1.3h3.8c2.2,0,3.5,1.1,3.5,3.2
				c0,0.9-0.4,1.7-0.9,2.3l-0.7,0.8l2.1,4.8C108.8,106.7,106.2,106.7,106.2,106.7z M104.4,97.3H102v3.5h2.9l0.4-0.6
				c0.3-0.4,0.6-0.8,0.6-1.4C105.9,97.9,105.5,97.3,104.4,97.3"/>
			<path class="st0" d="M112.3,106.7c-0.9,0-1.4-0.5-1.4-1.3v-8.5c0-0.8,0.5-1.3,1.4-1.3h6.4v1.8h-5.4v2.7h4.7v1.8h-4.7v3h5.4v1.8
				L112.3,106.7L112.3,106.7z"/>
			<polygon class="st0" points="126.9,102.1 126.9,106.7 124.4,106.7 124.4,102.1 120.4,95.6 123.1,95.6 125.7,100 128.2,95.6 
				130.8,95.6 			"/>
		</g>
		<g>
			<path class="st0" d="M426.6,80.3h5.6v15.9c0,3-0.9,5.4-2.7,7.1c-1.8,1.7-4.4,2.6-7.9,2.6s-6.1-0.8-7.9-2.5
				c-1.8-1.7-2.7-4.1-2.7-7.1V80.3h5.6v16c0,1.6,0.4,2.8,1.2,3.6c0.8,0.8,2.1,1.2,3.7,1.2s2.9-0.4,3.7-1.2c0.9-0.8,1.3-2,1.3-3.6
				C426.6,96.3,426.6,80.3,426.6,80.3z"/>
			<path class="st0" d="M458.8,93.1c0,2-0.3,3.8-0.9,5.4s-1.4,2.9-2.4,4c-1,1.1-2.3,1.9-3.8,2.5c-1.5,0.6-3.1,0.8-4.9,0.8h-6.5
				c-1,0-1.8-0.3-2.4-0.8c-0.5-0.5-0.8-1.3-0.8-2.2V83.3c0-0.9,0.3-1.7,0.8-2.2c0.6-0.5,1.4-0.8,2.4-0.8h6.6c1.8,0,3.5,0.3,4.9,0.9
				c1.5,0.6,2.7,1.4,3.8,2.5s1.8,2.4,2.4,4C458.5,89.3,458.8,91.1,458.8,93.1 M453.3,93.1c0-2.7-0.6-4.7-1.8-6.3
				c-1.2-1.5-2.9-2.3-5-2.3h-3.8v16.9h4c2.1,0,3.8-0.7,4.9-2.2C452.7,97.9,453.3,95.8,453.3,93.1"/>
			<path class="st0" d="M466.9,105.8c-1,0-1.8-0.3-2.4-0.8c-0.5-0.5-0.8-1.3-0.8-2.2V83.3c0-0.9,0.3-1.7,0.8-2.2
				c0.6-0.5,1.4-0.8,2.4-0.8h14.7v4.2h-12.4v6.3h10.8v4.1h-10.8v6.8h12.4v4.2L466.9,105.8L466.9,105.8z"/>
			<path class="st0" d="M513.1,105.8h-5V87.3l-5.5,16.6c-0.4,1.3-1.4,2-3,2s-2.6-0.7-3.1-2l-5.4-16.7v18.5h-4.8V83.7
				c0-1.2,0.4-2.1,1.1-2.6c0.8-0.6,1.8-0.9,3-0.9c0.7,0,1.3,0.1,1.8,0.3c0.5,0.2,0.9,0.4,1.3,0.7c0.4,0.3,0.7,0.6,0.9,1
				c0.2,0.4,0.4,0.8,0.6,1.3l4.6,14.6l4.8-14.6c0.3-0.9,0.8-1.7,1.4-2.4c0.6-0.6,1.7-0.9,3.1-0.9c1.2,0,2.2,0.3,3,0.9
				s1.1,1.5,1.1,2.6L513.1,105.8L513.1,105.8z"/>
			<rect x="525.4" y="77.6" class="st0" width="1.1" height="30.9"/>
			<path class="st0" d="M545,80.4h2.3V87c0,2.5-1.5,4-4.3,4s-4.3-1.5-4.3-4v-6.6h2.3V87c0,1.3,0.7,2,2,2s2-0.7,2-2L545,80.4
				L545,80.4z"/>
			<path class="st0" d="M551.8,90.8h-2v-9.1c0-0.9,0.6-1.4,1.6-1.4c0.8,0,1.3,0.4,1.6,1l3.6,6.4v-7.3h2v9.1c0,0.9-0.6,1.4-1.6,1.4
				c-0.8,0-1.3-0.4-1.6-0.9l-3.7-6.4C551.8,83.5,551.8,90.8,551.8,90.8z"/>
			<rect x="561.1" y="80.4" class="st0" width="2.3" height="10.4"/>
			<path class="st0" d="M571.5,89.9c-0.2,0.7-0.7,1-1.5,1s-1.3-0.3-1.5-1l-3.2-9.5h2.3l2.4,8l2.5-8h2.3L571.5,89.9z"/>
			<path class="st0" d="M577.7,90.8c-0.8,0-1.3-0.5-1.3-1.2v-8c0-0.8,0.5-1.2,1.3-1.2h6v1.7h-5v2.6h4.4v1.7h-4.4v2.8h5.1v1.7
				L577.7,90.8L577.7,90.8z"/>
			<path class="st0" d="M592.2,90.8l-1.6-3.8h-2.3v3.8H586v-9.2c0-0.7,0.5-1.2,1.3-1.2h3.6c2,0,3.2,1.1,3.2,3c0,0.8-0.4,1.6-0.8,2.2
				l-0.7,0.8l2,4.5L592.2,90.8L592.2,90.8z M590.5,82h-2.2v3.3h2.7l0.4-0.6c0.3-0.4,0.5-0.8,0.5-1.3C591.9,82.6,591.5,82,590.5,82"
				/>
			<path class="st0" d="M601.5,84.9c1.8,0.4,2.7,1.2,2.7,2.8c0,2.1-1.7,3.2-3.7,3.2c-1.2,0-2.2-0.2-3.4-0.6l-0.9-0.3l0.4-1.9
				l0.9,0.3c1,0.3,2,0.6,3,0.6c0.8,0,1.5-0.4,1.5-1.2c0-0.6-0.3-1-1.2-1.2l-1.8-0.4c-1.7-0.4-2.7-1.2-2.7-2.9c0-2.1,1.6-3.1,3.7-3.1
				c1.2,0,2.2,0.2,3.3,0.6l0.9,0.3l-0.4,1.9l-0.9-0.3c-1-0.3-1.9-0.6-2.9-0.6c-0.8,0-1.5,0.4-1.5,1.2c0,0.6,0.3,1,1.2,1.2
				L601.5,84.9L601.5,84.9z"/>
			<rect x="606.5" y="80.4" class="st0" width="2.3" height="10.4"/>
			<path class="st0" d="M615,90.8h-2.7c-0.8,0-1.3-0.5-1.3-1.2v-8c0-0.8,0.5-1.2,1.3-1.2h2.7c3,0,4.9,1.9,4.9,5.2S618,90.8,615,90.8
				 M614.9,82.1h-1.6V89h1.7c1.7,0,2.7-1.2,2.7-3.4S616.7,82.1,614.9,82.1"/>
			<path class="st0" d="M628.1,90.8l-0.6-1.9h-3.9l-0.6,1.9h-2.3l3.3-9.5c0.2-0.7,0.8-1.1,1.6-1.1c0.8,0,1.4,0.4,1.6,1.1l3.2,9.5
				C630.5,90.8,628.1,90.8,628.1,90.8z M625.6,82.6l-1.5,4.6h3L625.6,82.6L625.6,82.6z"/>
			<path class="st0" d="M636.2,90.8h-2.7c-0.8,0-1.3-0.5-1.3-1.2v-8c0-0.8,0.5-1.2,1.3-1.2h2.7c3,0,4.9,1.9,4.9,5.2
				S639.2,90.8,636.2,90.8 M636.1,82.1h-1.6V89h1.7c1.7,0,2.7-1.2,2.7-3.4S637.9,82.1,636.1,82.1"/>
			<path class="st0" d="M542.7,105.7h-2.7c-0.8,0-1.3-0.5-1.3-1.2v-8c0-0.8,0.5-1.2,1.3-1.2h2.7c3,0,4.9,1.9,4.9,5.2
				S545.7,105.7,542.7,105.7 M542.6,97H541v6.9h1.7c1.7,0,2.7-1.2,2.7-3.4S544.4,97,542.6,97"/>
			<path class="st0" d="M551.2,105.7c-0.8,0-1.3-0.5-1.3-1.2v-8c0-0.8,0.5-1.2,1.3-1.2h6V97h-5v2.6h4.4v1.7h-4.4v2.8h5.1v1.7
				C557.3,105.7,551.2,105.7,551.2,105.7z"/>
			<path class="st0" d="M575,105.7h-2v-7.6l-2.2,6.8c-0.2,0.6-0.5,0.8-1.2,0.8s-1.1-0.3-1.3-0.8l-2.2-6.8v7.6h-2v-9.1
				c0-1,0.7-1.4,1.7-1.4c1.2,0,1.7,0.6,1.9,1.4l1.9,6l2-6c0.3-0.8,0.7-1.4,1.8-1.4c1,0,1.7,0.5,1.7,1.4L575,105.7L575,105.7z"/>
			<path class="st0" d="M582.2,105.8c-3,0-5-1.9-5-5.3s2.1-5.3,5.1-5.3s5,1.9,5,5.3S585.3,105.8,582.2,105.8 M582.2,96.9
				c-1.7,0-2.7,1.3-2.7,3.6s1,3.6,2.8,3.6s2.7-1.3,2.7-3.6S584,96.9,582.2,96.9"/>
			<path class="st0" d="M591.6,105.7h-2v-9.1c0-0.9,0.6-1.4,1.6-1.4c0.8,0,1.3,0.4,1.6,1l3.6,6.4v-7.3h2v9.1c0,0.9-0.6,1.4-1.6,1.4
				c-0.8,0-1.3-0.4-1.6-0.9l-3.7-6.4V105.7L591.6,105.7z"/>
			<polygon class="st0" points="605.9,97 605.9,105.7 603.6,105.7 603.6,97 600.6,97 600.6,95.2 608.9,95.2 608.9,97 			"/>
			<path class="st0" d="M612.3,105.7c-0.8,0-1.3-0.5-1.3-1.2v-8c0-0.8,0.5-1.2,1.3-1.2h6V97h-5v2.6h4.4v1.7h-4.4v2.8h5.1v1.7
				C618.3,105.7,612.3,105.7,612.3,105.7z"/>
			<path class="st0" d="M626.8,105.7l-1.6-3.8h-2.3v3.8h-2.3v-9.2c0-0.7,0.5-1.2,1.3-1.2h3.6c2,0,3.2,1.1,3.2,3
				c0,0.8-0.4,1.6-0.9,2.2l-0.6,0.8l2,4.5L626.8,105.7L626.8,105.7z M625.1,96.9h-2.3v3.3h2.7l0.4-0.6c0.3-0.4,0.5-0.8,0.5-1.3
				C626.5,97.5,626.1,96.9,625.1,96.9"/>
			<path class="st0" d="M637.3,105.7l-1.6-3.8h-2.3v3.8h-2.3v-9.2c0-0.7,0.5-1.2,1.3-1.2h3.6c2,0,3.2,1.1,3.2,3
				c0,0.8-0.4,1.6-0.9,2.2l-0.6,0.8l2,4.5L637.3,105.7L637.3,105.7z M635.6,96.9h-2.3v3.3h2.7l0.4-0.6c0.3-0.4,0.5-0.8,0.5-1.3
				C637,97.5,636.6,96.9,635.6,96.9"/>
			<path class="st0" d="M643,105.7c-0.8,0-1.3-0.5-1.3-1.2v-8c0-0.8,0.5-1.2,1.3-1.2h6V97h-5v2.6h4.4v1.7h-4.4v2.8h5.1v1.7
				L643,105.7L643,105.7z"/>
			<polygon class="st0" points="656.6,101.3 656.6,105.7 654.3,105.7 654.3,101.4 650.5,95.3 653,95.3 655.5,99.4 657.8,95.3 
				660.3,95.3 			"/>
		</g>
	</g>
</g>
</svg>
